<svg xmlns="http://www.w3.org/2000/svg" width="28.313" height="32" viewBox="0 0 28.313 32"><defs><style>.a{fill:#a0a5ab;}</style></defs><g transform="translate(2285 -1437)"><path class="a" d="M30.75,32a1.25,1.25,0,0,1-1.25-1.25A11.388,11.388,0,0,1,40.875,19.375H42.75a11.352,11.352,0,0,1,3.746.632,1.25,1.25,0,0,1-.823,2.361,8.859,8.859,0,0,0-2.923-.492H40.875A8.885,8.885,0,0,0,32,30.75,1.25,1.25,0,0,1,30.75,32ZM50.125,8.438a8.438,8.438,0,1,0-8.437,8.438A8.447,8.447,0,0,0,50.125,8.438Zm-2.5,0A5.938,5.938,0,1,1,41.688,2.5,5.944,5.944,0,0,1,47.625,8.438ZM56.563,24.5h-3.75V20.75a1.25,1.25,0,0,0-2.5,0V24.5h-3.75a1.25,1.25,0,0,0,0,2.5h3.75v3.75a1.25,1.25,0,0,0,2.5,0V27h3.75a1.25,1.25,0,0,0,0-2.5Z" transform="translate(-2314.5 1437)"/></g></svg>